<?xml version="1.0" standalone="no"?>
<!DOCTYPE svg PUBLIC "-//W3C//DTD SVG 20010904//EN"
 "http://www.w3.org/TR/2001/REC-SVG-20010904/DTD/svg10.dtd">
<svg version="1.0" xmlns="http://www.w3.org/2000/svg"
 width="192.000000pt" height="192.000000pt" viewBox="0 0 192.000000 192.000000"
 preserveAspectRatio="xMidYMid meet">
<metadata>
Created by potrace 1.14, written by Peter Selinger 2001-2017
</metadata>
<g transform="translate(0.000000,192.000000) scale(0.100000,-0.100000)"
fill="#000000" stroke="none">
<path d="M1360 1441 c-124 -38 -199 -134 -200 -254 0 -143 71 -207 284 -253
184 -40 226 -55 268 -95 35 -33 38 -40 38 -90 0 -68 -25 -111 -82 -140 -59
-31 -192 -32 -259 -1 -60 26 -115 82 -141 141 -21 50 -32 61 -65 61 -47 0 -53
-21 -53 -173 0 -78 5 -149 10 -157 5 -9 25 -15 50 -15 48 0 60 14 60 68 l0 39
48 -35 c76 -55 133 -72 237 -71 116 2 188 28 249 90 58 58 80 122 74 216 -12
155 -101 223 -358 273 -124 24 -173 42 -205 75 -25 26 -27 34 -23 80 9 87 70
133 178 133 118 0 207 -47 271 -143 11 -17 24 -23 48 -22 19 0 38 5 43 10 5 5
7 67 6 138 l-3 129 -45 3 c-50 4 -70 -13 -70 -60 l0 -27 -44 29 c-24 17 -63
37 -86 45 -45 16 -186 19 -230 6z"/>
<path d="M223 1425 c-25 -17 -29 -45 -13 -76 9 -17 22 -19 102 -19 81 0 90 -2
85 -17 -2 -10 -53 -151 -112 -313 -59 -162 -116 -321 -127 -353 -20 -56 -20
-57 -59 -57 -40 0 -59 -18 -59 -59 0 -45 22 -51 181 -51 85 0 159 5 170 10 22
12 27 68 7 88 -7 7 -38 12 -70 12 -32 0 -58 4 -58 8 0 4 13 46 28 92 l29 85
198 0 198 0 33 -92 34 -93 -68 0 c-40 0 -73 -5 -80 -12 -20 -20 -15 -76 7 -88
29 -15 334 -13 349 2 16 16 16 70 0 86 -7 7 -28 12 -48 12 l-35 0 -44 123
c-48 136 -153 429 -208 582 -53 147 -41 139 -246 143 -145 2 -176 0 -194 -13z
m386 -315 c39 -112 71 -208 71 -212 0 -4 -70 -8 -155 -8 -85 0 -155 2 -155 4
0 4 114 334 136 394 9 24 20 40 25 35 4 -4 40 -100 78 -213z"/>
</g>
</svg>
